<svg xmlns="http://www.w3.org/2000/svg" viewBox="0 0 64 64"><path d="M63 32c0 17.094-13.906 31-31 31C14.907 63 1 49.094 1 32 1 14.907 14.907 1 32 1c1.732 0 3.471.144 5.166.429l-.332 1.973A29.2 29.2 0 0 0 32 3C16.009 3 3 16.009 3 32c0 15.99 13.009 29 29 29 15.99 0 29-13.01 29-29a29.027 29.027 0 0 0-6.764-18.617l1.533-1.284A31.03 31.03 0 0 1 63 32zM44.457 10.325a4.999 4.999 0 0 0 6.826-1.844 5 5 0 1 0-8.67-4.982 5 5 0 0 0 1.844 6.826zM44 47h6l.001-29h-6L44 47zM13 36c0 7.168 5.832 13 13 13s12.999-5.831 13-12.999h.001V18h-6v18H33c0 3.859-3.14 7-7 7s-7-3.141-7-7V25h-6v11zm0-18v4.254h1.215V18H13zm11.546 0v4.254h1.215V18h-1.215zm-7.596 4.254a2.13 2.13 0 0 1-2.127-2.127A2.13 2.13 0 0 1 16.95 18a2.13 2.13 0 0 1 2.127 2.127 2.13 2.13 0 0 1-2.127 2.127zm0-1.216a.913.913 0 1 0-.002-1.826.913.913 0 0 0 .002 1.826zm12.191-1.556l.859-.859a2.128 2.128 0 0 0-3.008 3.008c.415.415.959.622 1.504.622s1.089-.207 1.504-.622l-.859-.859a.914.914 0 0 1-1.289-.001.913.913 0 0 1 0-1.289.913.913 0 0 1 1.289 0zM19.685 18v4.254H20.9v-2.127a.913.913 0 0 1 1.824 0v2.127h1.215v-2.127A2.13 2.13 0 0 0 21.812 18c-.327 0-.634.081-.912.213V18h-1.215z" fill="#4000ff"/></svg>