<?xml version="1.0" encoding="iso-8859-1"?>
<!-- Generator: Adobe Illustrator 21.0.0, SVG Export Plug-In . SVG Version: 6.00 Build 0)  -->
<svg version="1.1" id="Calque_1" xmlns="http://www.w3.org/2000/svg" xmlns:xlink="http://www.w3.org/1999/xlink" x="0px" y="0px"
	 viewBox="0 0 64 64" style="enable-background:new 0 0 64 64;" xml:space="preserve">
<path style="fill:#FFFFFF;" d="M63,32c0,17.094-13.906,31-31,31C14.907,63,1,49.094,1,32C1,14.907,14.907,1,32,1
	c1.732,0,3.471,0.144,5.166,0.429l-0.332,1.973C35.248,3.135,33.622,3,32,3C16.009,3,3,16.009,3,32c0,15.99,13.009,29,29,29
	c15.99,0,29-13.01,29-29c0-6.801-2.402-13.412-6.764-18.617l1.533-1.284C60.432,17.663,63,24.73,63,32z M44.457,10.325
	c2.394,1.376,5.451,0.551,6.826-1.844c1.376-2.394,0.551-5.451-1.843-6.826c-2.394-1.376-5.451-0.551-6.827,1.844
	C41.238,5.893,42.063,8.949,44.457,10.325z M44,47h6l0.001-29h-6L44,47z M13,36c0,7.168,5.832,13,13,13
	c7.168,0,12.999-5.831,13-12.999h0.001V18h-6v18H33c0,3.859-3.14,7-7,7s-7-3.141-7-7V25h-6V36z M13,18v4.254h1.215V18H13z
	 M24.546,18v4.254h1.215V18H24.546z M16.95,22.254c-1.173,0-2.127-0.954-2.127-2.127c0-1.173,0.954-2.127,2.127-2.127
	c1.173,0,2.127,0.954,2.127,2.127C19.077,21.3,18.123,22.254,16.95,22.254z M16.95,21.038c0.503,0,0.912-0.409,0.912-0.912
	c0-0.503-0.409-0.912-0.912-0.912s-0.912,0.409-0.912,0.912C16.038,20.629,16.447,21.038,16.95,21.038z M29.141,19.482L30,18.623
	c-0.83-0.83-2.178-0.83-3.008,0c-0.829,0.829-0.829,2.179,0,3.008c0.415,0.415,0.959,0.622,1.504,0.622
	c0.545,0,1.089-0.207,1.504-0.622l-0.859-0.859c-0.355,0.354-0.934,0.354-1.289-0.001c-0.355-0.355-0.355-0.933,0-1.289
	C28.207,19.127,28.786,19.127,29.141,19.482z M19.685,18v4.254H20.9v-2.127c0-0.503,0.409-0.912,0.912-0.912
	s0.912,0.409,0.912,0.912v2.127h1.215v-2.127C23.938,18.954,22.984,18,21.812,18c-0.327,0-0.634,0.081-0.912,0.213V18H19.685z"/>
</svg>
